<svg width="27" height="26" viewBox="0 0 27 26" fill="none" xmlns="http://www.w3.org/2000/svg">
<path d="M26.1273 9.27075L18.0333 8.12402L14.415 0.973224C14.3162 0.77744 14.1536 0.618948 13.9527 0.522609C13.4491 0.280209 12.837 0.482209 12.5851 0.973224L8.96687 8.12402L0.872797 9.27075C0.649644 9.30183 0.445618 9.40438 0.289411 9.55977C0.100566 9.74898 -0.00349683 10.0035 8.97264e-05 10.2675C0.00367629 10.5315 0.114619 10.7833 0.308539 10.9676L6.16471 16.5334L4.78116 24.3928C4.74872 24.5756 4.76947 24.7636 4.84107 24.9355C4.91267 25.1074 5.03224 25.2564 5.18624 25.3654C5.34024 25.4744 5.5225 25.5392 5.71235 25.5524C5.90219 25.5656 6.09204 25.5267 6.26035 25.4401L13.5001 21.7295L20.7398 25.4401C20.9374 25.5426 21.167 25.5768 21.3869 25.5395C21.9416 25.4463 22.3146 24.9335 22.219 24.3928L20.8354 16.5334L26.6916 10.9676C26.851 10.8153 26.9562 10.6164 26.9881 10.3988C27.0741 9.855 26.6852 9.35155 26.1273 9.27075Z" fill="#2660A4"/>
</svg>
