<svg width="31" height="31" viewBox="0 0 31 31" fill="none" xmlns="http://www.w3.org/2000/svg">
<path d="M23.25 25.1875C23.25 26.2152 22.8417 27.2008 22.115 27.9275C21.3883 28.6542 20.4027 29.0625 19.375 29.0625H5.8125C4.78479 29.0625 3.79916 28.6542 3.07246 27.9275C2.34576 27.2008 1.9375 26.2152 1.9375 25.1875V11.625C1.9375 10.5973 2.34576 9.61166 3.07246 8.88496C3.79916 8.15826 4.78479 7.75 5.8125 7.75V9.6875C5.29864 9.6875 4.80583 9.89163 4.44248 10.255C4.07913 10.6183 3.875 11.1111 3.875 11.625V25.1875C3.875 25.7014 4.07913 26.1942 4.44248 26.5575C4.80583 26.9209 5.29864 27.125 5.8125 27.125H19.375C19.8889 27.125 20.3817 26.9209 20.745 26.5575C21.1084 26.1942 21.3125 25.7014 21.3125 25.1875H23.25Z" fill="white"/>
<path d="M11.625 3.875C11.1111 3.875 10.6183 4.07913 10.255 4.44248C9.89163 4.80583 9.6875 5.29864 9.6875 5.8125V19.375C9.6875 19.8889 9.89163 20.3817 10.255 20.745C10.6183 21.1084 11.1111 21.3125 11.625 21.3125H25.1875C25.7014 21.3125 26.1942 21.1084 26.5575 20.745C26.9209 20.3817 27.125 19.8889 27.125 19.375V5.8125C27.125 5.29864 26.9209 4.80583 26.5575 4.44248C26.1942 4.07913 25.7014 3.875 25.1875 3.875H11.625ZM11.625 1.9375H25.1875C26.2152 1.9375 27.2008 2.34576 27.9275 3.07246C28.6542 3.79916 29.0625 4.78479 29.0625 5.8125V19.375C29.0625 20.4027 28.6542 21.3883 27.9275 22.115C27.2008 22.8417 26.2152 23.25 25.1875 23.25H11.625C10.5973 23.25 9.61166 22.8417 8.88496 22.115C8.15826 21.3883 7.75 20.4027 7.75 19.375V5.8125C7.75 4.78479 8.15826 3.79916 8.88496 3.07246C9.61166 2.34576 10.5973 1.9375 11.625 1.9375Z" fill="white"/>
</svg>
